<svg id="Layer_1" data-name="Layer 1" xmlns="http://www.w3.org/2000/svg" viewBox="0 0 224 219"><defs><style>.cls-1{font-size:70px;}.cls-1,.cls-2,.cls-3{font-family:Wellington, Wellington;}.cls-2{font-size:20px;letter-spacing:0.03em;}.cls-3{font-size:12px;letter-spacing:0.02em;}.cls-4{fill:#fff;}</style></defs><title>Logo</title><path d="M112.07,21.75C136,22,167.44,34.32,185,54.73c8.49,9.86,14.28,20.57,14.87,27.28H27A90.56,90.56,0,0,1,59.75,39.23C74.85,28.34,91.86,22.62,112.07,21.75Zm82.41,57.1c-6.58-28.3-45.74-52.94-82.82-52.93C72.5,25.93,41.31,55.13,33.3,79,87.19,74.51,140.71,75,194.48,78.85Z"/><path d="M29.19,148.92h169.7c-.17,3.12-.44,6-.45,8.88,0,7.83-.16,15.66.22,23.47.17,3.41-.78,4.86-4,6.17-27.34,11.28-55.91,15.19-85.25,14.48a222.76,222.76,0,0,1-75-14.85c-4.12-1.58-5.49-3.53-5.34-7.89C29.43,169.4,29.19,159.59,29.19,148.92Zm3.8,2.64c0,8.4.35,16.54-.14,24.63-.28,4.8,1.62,6.52,5.82,8.05C71,196,104.1,200.52,138.29,196.85c18.1-1.94,35.83-5.57,52.68-12.72,1.39-.59,3.56-1.8,3.59-2.76.27-9.56.16-19.12.16-29.69C140.32,156.06,87.17,156.47,33,151.56Z"/><text class="cls-1" transform="translate(36.67 139.9)">F’AAET</text><text class="cls-2" transform="translate(102.5 174.38)">CO.</text><text class="cls-3" transform="translate(57.5 171.83)">20</text><text class="cls-3" transform="translate(157.5 171.83)">18</text><path d="M95.82,167.05a1.47,1.47,0,0,1,0,2.23h0l-15.72-1c-.11,0-.11-.14,0-.15l15.73-1S95.81,167,95.82,167.05Z"/><path d="M131.53,167.05a1.47,1.47,0,0,0,0,2.23h0l15.72-1c.11,0,.11-.14,0-.15l-15.72-1S131.54,167,131.53,167.05Z"/><path d="M84.07,180.18a1.23,1.23,0,0,1,1.12.81l0,.14v.2c0,.4-.14.6-.41.59s-.45-.27-.81-.78l-.22-.07a3.49,3.49,0,0,0-1.38,1.78,8.54,8.54,0,0,0-.58,2.46,5.81,5.81,0,0,0-.09.86v.21s0,0,0,0l0,0v.16a7.13,7.13,0,0,0,.85,3.42,1.4,1.4,0,0,0,1,.73c.14,0,.43-.13.88-.46l.19-.05h0s0,0,.06.08c0,.24-.3.54-.9.88a2.3,2.3,0,0,1-1,.13c-1.48-.21-2.42-1.45-2.85-3.65a6.37,6.37,0,0,1-.13-1.3A9,9,0,0,1,81,181.71a3.42,3.42,0,0,1,1.89-1.44C83.24,180.23,83.61,180.2,84.07,180.18Z"/><path d="M90.1,180.45h.19a.57.57,0,0,1,.24.15,2.56,2.56,0,0,1,1.09.27,3.48,3.48,0,0,1,1.09,1.06,3.88,3.88,0,0,1,.43,1.4,16.86,16.86,0,0,1,.15,2,10,10,0,0,1-1.51,5.73,2.36,2.36,0,0,1-2.08.6l-.2,0c-1-.11-1.77-.86-2.25-2.21a10.25,10.25,0,0,1-.38-2.57,9.8,9.8,0,0,1,1.28-4.8,7.25,7.25,0,0,1,1.21-1.47A1.68,1.68,0,0,1,90.1,180.45Zm.27.72a12,12,0,0,1-.69,1.35,13.76,13.76,0,0,0-1.11,5.1,4.62,4.62,0,0,0,1,3.2,1.33,1.33,0,0,0,.52.24c.54.06.94-.26,1.18-1a13.92,13.92,0,0,0,1.11-5.4c0-1.46-.3-2.44-.93-2.93Z"/><path d="M96.82,180c1.39,0,2.3.91,2.73,2.74a6.4,6.4,0,0,1,.19,1.49v.39a3.17,3.17,0,0,1-1.35,2.72,3.7,3.7,0,0,1-1.83.75s0,.13,0,.33c0,2.47-.12,3.82-.35,4.06a.88.88,0,0,1-.8.36h-.13a8.57,8.57,0,0,1-.38-2.74c0-.71,0-1.18,0-1.41,0-1.58.09-3.86.27-6.87a5.8,5.8,0,0,1,.27-1.48A2.14,2.14,0,0,1,96.82,180Zm-.32.71c0,.6.07,1.79.07,3.55v3.2h0a2,2,0,0,0,1.26-.74,3.89,3.89,0,0,0,.69-2.3,4.34,4.34,0,0,0-1.32-3.33A1.92,1.92,0,0,0,96.5,180.72Z"/><path d="M103.08,180.23l.12,0h.18q1.05,0,1.05.42v.06c0,.09-.16.13-.47.13h-1.25c0,.57,0,1.4.06,2.48s0,2.09,0,2.75c0,.12,0,.44,0,.94l.41,0a7.21,7.21,0,0,0,1.1-.15c.2,0,.3.12.3.22s-.38.39-1.12.52a5.92,5.92,0,0,1-.69.06l0,.11c.07,2.7.18,4.06.34,4.07a.9.9,0,0,0,.83.59h.16a7.59,7.59,0,0,0,1-.17h0c.12,0,.17.09.17.24s-.58.47-1.73.61h-.43a1.75,1.75,0,0,1-1.81-1.26,7.64,7.64,0,0,1-.2-2.38v0c0-2.45.18-5.33.52-8.66h0a.18.18,0,0,1-.09-.18,1.87,1.87,0,0,1,.75-.34C102.47,180.3,102.73,180.27,103.08,180.23Z"/><path d="M107.77,180.12h.13c.22,0,.38.14.47.43.27.84.82,2.82,1.63,6q.78,2.44,1.47,4.11l.09.06v0c-.08-1.46-.11-2.73-.11-3.8v-1.23c0-2.68.23-4.41.69-5.16.14-.16.26-.24.37-.24s.39.11.39.32c.09,1.06.14,2.33.14,3.83v1.39q-.09,7.69-.43,7.69a1.21,1.21,0,0,1-.69.2h0c-.36,0-.59-.28-.72-.81-.06-.12-.25-.7-.56-1.72l-1.18-3.46c-.22-.76-.53-2-1-3.61,0,0,0,0,0,.05q-.09,7.56-.25,9.26a2.1,2.1,0,0,1-.82.24h0c-.23,0-.38-.27-.47-.78-.06,0-.1-2.05-.15-6.14v-.24a32.91,32.91,0,0,1,.46-5.7C107.33,180.33,107.52,180.12,107.77,180.12Z"/><path d="M119.69,180.52a1.68,1.68,0,0,1,.44,1c0,1.94.07,3.37.07,4.3q0,5.57-.79,7c-.17.23-.32.35-.46.35h0c-.39,0-.58-1.17-.58-3.55q0-.83-.09-1.2c-.17,0-.78.05-1.81.14v.36c0,2.58-.19,4-.56,4.31a.68.68,0,0,1-.67.32h0c-.19,0-.29-.13-.29-.4a4.55,4.55,0,0,1-.36-2.4c0-.25,0-.89-.06-1.94a37.53,37.53,0,0,1,.53-7.1c.23-.75.52-1.13.87-1.13H116c.29,0,.43.1.43.3,0,.6,0,1,0,1q-.06,5.49-.06,5.73h0c.41,0,1,0,1.82,0l0-.13c0-4,.33-6.23,1-6.74A.61.61,0,0,1,119.69,180.52Z"/><path d="M125.12,180.18c.55,0,.95.39,1.21,1.22.51,2.59,1.06,6.45,1.67,11.55h0a1.53,1.53,0,0,1-.56.26h-.07c-.29,0-.52-.41-.7-1.3a19.9,19.9,0,0,1-.51-2.49c-.6.11-1,.17-1.36.2h-.17a7.69,7.69,0,0,1-1.15,0,28.31,28.31,0,0,1-.59,3c-.17.52-.41.79-.7.81h-.26c-.2,0-.31-.24-.32-.75v-.08a42.55,42.55,0,0,1,1.06-7.39,21.08,21.08,0,0,1,1.26-4.17A1.69,1.69,0,0,1,125.12,180.18Zm0,1.93a9.83,9.83,0,0,0-.4,1.6,16.38,16.38,0,0,0-.55,2.25,18.92,18.92,0,0,0-.43,2.44v0l2.22,0q-.33-3.1-.82-6.31Z"/><path d="M134.29,180a1.88,1.88,0,0,1,2,1.56,3.53,3.53,0,0,1,.07.6v.32c0,1.11-.21,1.81-.64,2.08l-.33.07a.22.22,0,0,1-.19-.23l0-.17v-.65c0-1.15-.19-1.83-.57-2a.72.72,0,0,0-.51-.21H134c-.72,0-1.52.89-2.4,2.7a10.33,10.33,0,0,0-.53,3.72,7.55,7.55,0,0,0,.74,3.48,1.47,1.47,0,0,0,1.47,1c.7-.06,1.27-1.22,1.71-3.45-.74.11-1.3.17-1.68.19l-.28,0c-.34,0-.52-.08-.52-.28v0c0-.22.23-.44.69-.65,1.41-.27,2.23-.42,2.46-.43l.3,0a1,1,0,0,1,.86.42v.06a4.58,4.58,0,0,1-.51.4v.3A5.34,5.34,0,0,1,135,192a3,3,0,0,1-1.74,1.13,5.26,5.26,0,0,1-1.1.26c-.86.06-1.62-.52-2.28-1.77a8.67,8.67,0,0,1-.64-3.36v-.58a11,11,0,0,1,1.21-5.14,5.46,5.46,0,0,1,2.77-2.33A3.89,3.89,0,0,1,134.29,180Z"/><path d="M140.07,180.22l.12,0h.18c.7,0,1,.13,1,.38v0c0,.08-.15.12-.47.12H139.7c0,.53,0,1.3.08,2.29s0,1.94,0,2.55c0,.11,0,.4,0,.86h.4c.12,0,.48-.09,1.1-.23.2,0,.3.08.3.17s-.37.39-1.11.57a4.87,4.87,0,0,1-.69.12v.1c.09,2.49.21,3.72.37,3.7a.73.73,0,0,0,.83.42h.15a7.36,7.36,0,0,0,1-.3h0c.12,0,.17.05.17.19s-.57.51-1.71.81l-.43.07c-1,.1-1.59-.2-1.81-.91a6.3,6.3,0,0,1-.22-2.21v0a78.32,78.32,0,0,1,.47-8.16h0a.18.18,0,0,1-.09-.18,2,2,0,0,1,.75-.31A6.11,6.11,0,0,1,140.07,180.22Z"/><path d="M144.76,180.1h.13a.5.5,0,0,1,.47.37c.27.72.82,2.42,1.65,5a32.16,32.16,0,0,0,1.46,3.27l.09,0v0c-.08-1.19-.11-2.23-.12-3.11v-1c0-2.21.23-3.63.69-4.25a.57.57,0,0,1,.37-.19c.25,0,.38.08.38.25a27.07,27.07,0,0,1,.15,3.08v1.12c-.06,4.12-.2,6.21-.42,6.24a1.6,1.6,0,0,1-.69.28h0c-.35.06-.59-.13-.71-.55a11.17,11.17,0,0,1-.56-1.35c-.39-.91-.79-1.83-1.18-2.77-.22-.62-.54-1.62-1-3,0,0,0,0,0,.05q-.08,6.48-.22,8a2.33,2.33,0,0,1-.82.33h0c-.22,0-.38-.18-.47-.61-.05,0-.1-1.78-.16-5.36v-.21a25.36,25.36,0,0,1,.44-5C144.32,180.29,144.51,180.1,144.76,180.1Z"/><path d="M66,48.17l.16-.15a.75.75,0,0,1,.29-.1,4.27,4.27,0,0,1,1.08-.68A3.68,3.68,0,0,1,69,47.05a2.42,2.42,0,0,1,1,.5,8.56,8.56,0,0,1,1.09,1.09A6.75,6.75,0,0,1,72.69,53,3.36,3.36,0,0,1,71.5,54.9l-.15.13a2.53,2.53,0,0,1-2.76.49,6,6,0,0,1-1.71-1.14,5.81,5.81,0,0,1-1.68-3.73,5.73,5.73,0,0,1,.22-1.8A2.26,2.26,0,0,1,66,48.17Zm.61.2a11.1,11.1,0,0,1,.12,1.3,7.81,7.81,0,0,0,1.84,3.77A3,3,0,0,0,71,54.49a1.5,1.5,0,0,0,.49-.25,1.27,1.27,0,0,0,.37-1.42A9.08,9.08,0,0,0,70,48.89a2.19,2.19,0,0,0-2.23-1C67,48.19,66.57,48.36,66.56,48.37Z"/><path d="M71.4,43.31l.16-.12A3.1,3.1,0,0,1,75,42.71a3.38,3.38,0,0,1,1.37,1.11A2.88,2.88,0,0,1,76,47.51q-.11.16-.09.18a3.1,3.1,0,0,1,1.38.25c.74.26,1.2.43,1.41.49a1.59,1.59,0,0,0,1.2-.07,3.86,3.86,0,0,0,.56-.58.33.33,0,0,1,.12-.1c.15-.07.26-.06.31,0s-.21.57-1,1.16l-.11.06a2.35,2.35,0,0,1-2,.44c-.53-.11-1.27-.32-2.24-.63h-.05c.92,1.3,1.34,2,1.26,2,.08.11,0,.33-.38.68h0c-.34.26-1-.19-2-1.35-.17-.2-.34-.42-.52-.65-.63-.83-1.53-2.12-2.66-3.9a10,10,0,0,0-.43-1s-.25.21-.62.55l-.14.11h-.09l0-.06C69.91,44.65,70.42,44,71.4,43.31Zm.38.32h0q2.05,3,2.63,3.73a5.93,5.93,0,0,0,.57.69,2.78,2.78,0,0,0,.52-1.63A3.4,3.4,0,0,0,75,44.71l0-.08c-.76-1.11-1.57-1.56-2.45-1.3A4.11,4.11,0,0,0,71.78,43.63Z"/><path d="M82.58,36.67a2,2,0,0,1,2.43.17,1.83,1.83,0,0,1,.25.39l.1.22c.33.76.33,1.33,0,1.69l-.3.18c-.14,0-.22,0-.26-.07l0-.12-.21-.45c-.35-.78-.75-1.15-1.19-1.11a1,1,0,0,0-.58.09l-.08,0c-.71.35-1.22,1.33-1.45,2.93A5.26,5.26,0,0,0,82,43.27a4.63,4.63,0,0,0,1.86,1.91,1.6,1.6,0,0,0,1.66.09c.62-.3.76-1.28.48-3-.66.36-1.16.63-1.5.8l-.25.12c-.32.16-.51.18-.58,0h0q-.12-.21.42-.72c1.22-.77,2-1.18,2.18-1.28l.28-.13a1.14,1.14,0,0,1,.94,0v0a3.5,3.5,0,0,1-.36.46l.09.21A3.41,3.41,0,0,1,87,44.41a3,3,0,0,1-1.2,1.39,7.89,7.89,0,0,1-.89.59,2.84,2.84,0,0,1-2.62-.17,5.17,5.17,0,0,1-1.77-1.8l-.2-.36a5.7,5.7,0,0,1-.68-3.86,5.66,5.66,0,0,1,1.93-2.92A6.35,6.35,0,0,1,82.58,36.67Z"/><path d="M89.9,33.78a1.34,1.34,0,0,1,1.54.4,56.83,56.83,0,0,1,4,7.4h0a1.46,1.46,0,0,1-.46.31l-.06,0c-.27.09-.57-.15-.93-.71a12.64,12.64,0,0,1-1-1.54c-.55.24-1,.43-1.25.53l-.16.06a10.09,10.09,0,0,1-1.09.35,18.56,18.56,0,0,1,.18,2.15.77.77,0,0,1-.42.76l-.23.09c-.17.08-.33,0-.48-.37l0-.06a18.94,18.94,0,0,1-.91-5.2,10.36,10.36,0,0,1,.23-3.22A2,2,0,0,1,89.9,33.78Zm.4,1.3a5,5,0,0,0,0,1.21,8.05,8.05,0,0,0,0,1.68,9.2,9.2,0,0,0,.16,1.77l0,0c.17-.07.87-.33,2.12-.72-.67-1.33-1.41-2.65-2.24-4Z"/><path d="M95.43,32.07l.14,0a.55.55,0,0,1,.57.17,40.69,40.69,0,0,1,2.64,3.67c.77,1,1.44,1.83,2,2.5l.09,0v0c-.26-1-.47-1.84-.61-2.57l-.17-.85c-.36-1.84-.36-3.06,0-3.67a.69.69,0,0,1,.37-.24c.27-.05.43,0,.45.15a19.41,19.41,0,0,1,.61,2.6l.16,1q.83,5.3.51,5.35a1.59,1.59,0,0,1-.61.26h0a.7.7,0,0,1-.77-.42,12.93,12.93,0,0,1-.77-1.06c-.54-.71-1.1-1.41-1.67-2.1l-1.54-2.23s0,0,0,0Q98,39.77,98.14,41a2.58,2.58,0,0,1-.71.37h0c-.2,0-.39-.08-.57-.41,0,0-.47-1.36-1.28-4.12l0-.16a15.17,15.17,0,0,1-.58-4A.69.69,0,0,1,95.43,32.07Z"/><path d="M104.37,30.46c.67-.08,1,.05,1.06.37a1.44,1.44,0,0,0-.43.2c.11.5.19,1,.25,1.49l0,.18a60.4,60.4,0,0,1,.4,6.08,1.29,1.29,0,0,0,0,.44c.33,0,.53.06.61.3s-.11.2-.36.23l-1,.2a.94.94,0,0,1-.92-.31c0-.07,0-.11,0-.15s.21-.16.67-.22v0a36.29,36.29,0,0,1-1.26-5.17l0-.19a5,5,0,0,1,.08-2.54l-.16,0c-.66.06-1,0-1.15-.26s.45-.33,1.42-.5Z"/><path d="M111.47,29.94a1.34,1.34,0,0,1,1.22.63l0,.12v.16c0,.33-.14.49-.44.49s-.48-.2-.88-.61l-.24-.06a3.16,3.16,0,0,0-1.41,1.57,5.91,5.91,0,0,0-.49,2.12,4.4,4.4,0,0,0-.05.73v.18s0,0,0,0l0,0v.13a5.11,5.11,0,0,0,1,2.76,1.21,1.21,0,0,0,1,.46,2,2,0,0,0,.83-.48l.19-.06h0s0,0,.06.06-.29.47-.85.83a2.67,2.67,0,0,1-1,.25c-1.4.06-2.36-.79-3-2.61a5.25,5.25,0,0,1-.23-1.1,6.51,6.51,0,0,1,1-4.18,3.45,3.45,0,0,1,2-1.34A11.18,11.18,0,0,1,111.47,29.94Z"/><path d="M120.24,30.21h.17a.94.94,0,0,1,.55.32h0a2.41,2.41,0,0,1,1-.08,1.88,1.88,0,0,1,1.69,1.25,3.52,3.52,0,0,1,0,1,5.12,5.12,0,0,1-1.37,2.49c-.3.24-.45.39-.46.45a3.78,3.78,0,0,1,1.48.71,1.76,1.76,0,0,1,.69,1.58v0c-.13.73-.74,1.29-1.79,1.74a4.21,4.21,0,0,1-1.82.2,2.41,2.41,0,0,1-1.35-.51h-.31c-.21-.13-.31-.75-.31-1.88.06-.89.11-1.78.16-2.66a29.4,29.4,0,0,1,.7-3.82c.17-.49.32-.72.46-.71A.75.75,0,0,1,120.24,30.21Zm1.06,6a1.75,1.75,0,0,1-1,.23l0,.5c0,.31-.07.63-.09,1a7.36,7.36,0,0,1-.25,1.12,1.09,1.09,0,0,0,.53.24l.14,0a1.64,1.64,0,0,0,1.37-.65,2.63,2.63,0,0,0,.21-.64l0-.13a1.55,1.55,0,0,0-.66-1.56A.36.36,0,0,0,121.3,36.17Zm-.71-2.74c-.11,1.09-.17,1.7-.19,1.84.16,0,.25,0,.3-.12a7.77,7.77,0,0,0,1.18-2.26l.05-.39,0-.06a.13.13,0,0,1,0-.08l0-.11c.07-.56,0-.85-.21-.88s-.52.22-.86.75A5.13,5.13,0,0,0,120.59,33.43Z"/><path d="M132.86,32.67a.93.93,0,0,1,.46.3q-.69,2.61-.87,3.21c-.62,2-1.23,3.25-1.81,3.63a3.32,3.32,0,0,1-2.95.84l-.19,0A1.88,1.88,0,0,1,125.87,39a12.74,12.74,0,0,1,.26-3.75,14.19,14.19,0,0,1,1.09-3.42.72.72,0,0,1,.77-.32.74.74,0,0,1,.48.32,2.5,2.5,0,0,1-.12,1c-.41,1.61-.65,2.56-.71,2.86l0,.18c-.57,2.56-.33,4,.71,4.22a1.07,1.07,0,0,0,1.14-.4,3.74,3.74,0,0,0,1.25-1.92l.05-.18c.05-.18.28-1.15.67-2.89l.15-.56c.31-1.09.57-1.61.78-1.55A1,1,0,0,1,132.86,32.67Z"/><path d="M136.78,33.87l.17.06a3,3,0,0,1,2.28,2.55,3.58,3.58,0,0,1-.15,1.76A2.87,2.87,0,0,1,135.87,40l-.2,0a2.82,2.82,0,0,1,.55,1.27c.19.76.31,1.23.37,1.44a1.61,1.61,0,0,0,.72.94,3.63,3.63,0,0,0,.79.12.33.33,0,0,1,.14.05q.21.13.15.27c-.09.21-.59.15-1.48-.14l-.11,0a2.28,2.28,0,0,1-1.48-1.42c-.2-.49-.42-1.22-.7-2.19l0,0a7.86,7.86,0,0,1-1,2.18c0,.12-.29.15-.75.08h0c-.39-.13-.38-.93,0-2.39.07-.26.15-.52.25-.8.32-1,.88-2.46,1.71-4.39,0,0,.21-.31.58-.93,0,0-.3-.09-.77-.2l-.16,0s0,0-.06-.08l0-.07A3.11,3.11,0,0,1,136.78,33.87Zm-.06.49v0c-.84,2.24-1.37,3.67-1.59,4.27-.07.2-.15.49-.25.86a2.62,2.62,0,0,0,1.6-.5,3.4,3.4,0,0,0,1.13-1.38l0-.09c.49-1.25.41-2.17-.28-2.74A3.43,3.43,0,0,0,136.72,34.36Z"/><path d="M148.43,39.28a2,2,0,0,1,1.25,2.12,1.85,1.85,0,0,1-.17.42l-.13.21c-.44.71-.91,1-1.41.95l-.32-.15c-.1-.09-.13-.18-.09-.25l.09-.1.25-.42c.44-.73.52-1.27.24-1.61a1.06,1.06,0,0,0-.41-.43l-.09-.05c-.69-.39-1.79-.26-3.24.46a5.27,5.27,0,0,0-1.74,2.13,4.5,4.5,0,0,0-.52,2.61,1.59,1.59,0,0,0,.87,1.42c.6.34,1.49-.1,2.72-1.28-.68-.34-1.18-.6-1.52-.79l-.25-.14q-.47-.26-.36-.45h0c.08-.14.36-.16.83-.05A22.44,22.44,0,0,1,146.75,45l.27.16a1.14,1.14,0,0,1,.56.77l0,0a3.33,3.33,0,0,1-.59,0l-.12.19a3.4,3.4,0,0,1-2.27,1.28,3.09,3.09,0,0,1-1.84-.22,7.5,7.5,0,0,1-1-.39,2.87,2.87,0,0,1-1.34-2.26,5.26,5.26,0,0,1,.49-2.47l.18-.38a5.74,5.74,0,0,1,2.79-2.75,5.6,5.6,0,0,1,3.5,0A6,6,0,0,1,148.43,39.28Z"/><path d="M153.84,42.92l.11.1.16.12c.65.47.91.79.79,1l0,0c0,.05-.2,0-.49-.25l-1.15-.82c-.23.34-.55.84-1,1.5s-.9,1.19-1.17,1.58c-.05.07-.16.26-.34.57l.33.26,1,.58c.16.15.21.25.17.31s-.48,0-1.18-.38a6.67,6.67,0,0,1-.62-.37l0,.07c-1,1.62-1.5,2.48-1.38,2.57a1,1,0,0,0,.45.81l.13.09c.08.06.38.22.89.49h0a.16.16,0,0,1,0,.24c-.12.15-.67-.08-1.67-.64l-.36-.24c-.79-.56-1.12-1.12-1-1.71a4.16,4.16,0,0,1,.76-1.53h0a38.7,38.7,0,0,1,3.9-4.87l0,0a.12.12,0,0,1,0-.16,3,3,0,0,1,.84.28C153.24,42.57,153.5,42.71,153.84,42.92Z"/><path d="M158.63,46.44l.15.13a3.18,3.18,0,0,1,1.34,3.29,3.22,3.22,0,0,1-.74,1.61,2.9,2.9,0,0,1-3.72.46c-.12,0-.18-.06-.19,0a3.16,3.16,0,0,1,.1,1.41c-.07.79-.12,1.29-.13,1.51a1.72,1.72,0,0,0,.38,1.17,4.06,4.06,0,0,0,.72.43s.07,0,.13.09.13.25.06.32-.63-.09-1.4-.71l-.09-.09a2.47,2.47,0,0,1-1-1.92c0-.54,0-1.32.06-2.34l0,0c-1,1.19-1.59,1.76-1.66,1.7-.08.1-.33,0-.75-.21l0,0q-.49-.4.84-2.25c.15-.22.32-.44.51-.67.65-.81,1.69-2,3.14-3.51a9.32,9.32,0,0,0,.89-.65s-.27-.2-.69-.48l-.14-.11s0-.05,0-.09l.05-.06C157,45.3,157.69,45.65,158.63,46.44Zm-.22.44v0q-2.37,2.7-3,3.44a6.79,6.79,0,0,0-.53.72,2.75,2.75,0,0,0,1.72.13,3.32,3.32,0,0,0,1.56-.87l.07-.07c.9-1,1.13-1.91.66-2.71A4.58,4.58,0,0,0,158.41,46.88Z"/><path d="M109.41,60.66a2.5,2.5,0,0,1-1.47-.5,1.7,1.7,0,0,0-.51-.17c-.43-.13-.86-.28-1.3-.38a4.2,4.2,0,0,0-.8,0l-.3,0,.1-.22L103,58.67l0-.55,1.33-.23,5.91-1c.07,0,.17-.09.18-.15.22-1,.42-2,.63-3,.06-.31.13-.61.2-.92,0-.07,0-.18.09-.2.21-.1.23-.28.27-.46.09-.39.21-.77.28-1.17s.25-.23.41-.22.22.14.25.25c.29.86.56,1.72.83,2.59a.21.21,0,0,0,.15.11c.17,0,.25.09.33.22A12.06,12.06,0,0,1,115,56.6a.24.24,0,0,0,.28.21c2.55,0,5.1,0,7.64,0H123v0l-.65.39c-1.91,1.13-3.81,2.27-5.72,3.39-.15.09-.2.17-.13.32.14.34.25.7.42,1,.36.74.75,1.46,1.13,2.19l1.61,3.1,0,.09-.42.36-6.23-4.66c-.48.8-1,1.58-1.41,2.36a.61.61,0,0,1-.44.34A.26.26,0,0,0,111,66c0,.31-.13.62-.17.93a.41.41,0,0,1-.28.35,2.5,2.5,0,0,1-.45.12.55.55,0,0,0-.47.27c-.36.53-.74,1-1.13,1.59l-.43-.22C108.68,66.28,109,63.47,109.41,60.66Zm-2.19-2.57v0l1.34.07.19,0,1.44-.32c.16,0,.21-.1.14-.27Zm3.63.81v-.07a10.24,10.24,0,0,0-3.26.14,3,3,0,0,0,.53.1c.72,0,1.43-.08,2.15-.12Zm8.47-1.37v0h-1.9l1.21.32a.16.16,0,0,0,.12,0Zm-3.24,1.93,0,.08c.07,0,.15.1.19.08.49-.21,1-.45,1.44-.68l0-.08Zm-6.22,2.82h0l.48-1.77-.05,0c-.08.06-.22.11-.23.19C110,61.19,109.94,61.73,109.86,62.28Zm-.41-2.49v.1l1,0c.06,0,.12-.08.18-.12l0,0Zm6.26-1.11.14.3.87-.22v0Zm-10.83-.2v.05l.54.16v-.3Zm6,.54-.84.16C110.59,59.28,110.8,59.25,110.85,59Zm1.79-5h.08c.06-.19-.08-.34-.16-.51Z"/><path class="cls-4" d="M107.22,58.09l3.12-.53c.07.17,0,.24-.14.27l-1.44.32-.19,0-1.34-.07Z"/><path class="cls-4" d="M110.85,58.9l-.58.05c-.72,0-1.43.09-2.15.12a3,3,0,0,1-.53-.1,10.24,10.24,0,0,1,3.26-.14Z"/><path class="cls-4" d="M119.32,57.53l-.58.28a.16.16,0,0,1-.12,0l-1.21-.32h1.9Z"/><path class="cls-4" d="M116.08,59.46l1.56-.6,0,.08c-.48.23-1,.47-1.44.68,0,0-.12,0-.19-.08Z"/><path class="cls-4" d="M109.86,62.28c.08-.55.14-1.09.23-1.63,0-.08.15-.13.23-.19l.05,0-.48,1.77Z"/><path class="cls-4" d="M109.45,59.79h1.14l0,0c-.06,0-.12.12-.18.12l-1,0Z"/><path class="cls-4" d="M115.71,58.68l1,.06v0l-.87.22Z"/><path class="cls-4" d="M104.88,58.48l.53-.09v.3l-.54-.16Z"/><path class="cls-4" d="M110.85,59c0,.23-.26.26-.84.16Z"/><path class="cls-4" d="M112.64,54l-.08-.51c.08.17.22.32.16.51Z"/><path d="M98,65.16v0c-.15.32-.15.31-.5.2s-.87-.25-1.31-.38l-3-.85L93,64.07c-.1.6-.2,1.18-.31,1.75a.45.45,0,0,1-.15.29.29.29,0,0,0-.11.33c0,.14,0,.28.08.42a.34.34,0,0,1-.17.45c-.37.16-.41.49-.49.81s-.13.51-.19.78h-.2c-.14,0-.17-.08-.19-.21A13,13,0,0,0,91,67.3c-.23-1.1-.48-2.21-.72-3.31,0-.16-.08-.33-.12-.48a2.35,2.35,0,0,1-.64,0,7.26,7.26,0,0,0-1.68,0,1.9,1.9,0,0,0-.38.13l-.22.08v-.17l-1.46.11a1.33,1.33,0,0,1-.1-.28.2.2,0,0,1,.09-.13l1.79-1L89.84,61a.17.17,0,0,0,.06-.15c-.12-.84-.24-1.69-.37-2.53a.33.33,0,0,1,0-.1c.18-.26,0-.53,0-.79a.54.54,0,0,0,0-.25c-.08-.21,0-.33.26-.4l.37.47L91,58.28s.06,0,.07,0c.28-.07.44.14.59.3.35.36.68.74,1,1.12a.15.15,0,0,0,.2,0l3-1.12L97.67,58l-.81,1L96,60c-.26.33-.53.65-.8,1s-.42.51-.62.77a.28.28,0,0,0,0,.22,3.72,3.72,0,0,0,.83.85c.27.26.55.5.83.75ZM88.3,62.38v0l.08,0c.29-.11.59-.19.87-.32s.51-.34.77-.49c.11-.07.09-.12,0-.22Zm2.35-.33a5.19,5.19,0,0,0-1.89.8A13.06,13.06,0,0,0,90.65,62.05Zm3.83-2.4v.05c.34-.1.79.06,1-.43Zm.35.88,0,0-.81.73c.1.15.18,0,.24,0C94.44,61,94.63,60.76,94.83,60.53Zm-4.07,2.64-.05,0c0,.07-.1.14-.09.19.06.29.13.57.19.85h0Zm-.71-.23a1,1,0,0,0,.69-.24A2.18,2.18,0,0,0,90.05,62.94Zm4.09-2.25v0l-.52.16c0,.18.16.14.27.06Zm-6.82,2.48L87.25,63l-.36.22Zm3.42-1.05-.46.28,0,.05C90.41,62.29,90.69,62.42,90.74,62.12Z"/><path class="cls-4" d="M88.3,62.38l1.77-1c.05.1.07.15,0,.22-.26.15-.5.35-.77.49s-.58.21-.87.32l-.08,0Z"/><path class="cls-4" d="M90.65,62.05a13.06,13.06,0,0,1-1.89.8A5.19,5.19,0,0,1,90.65,62.05Z"/><path class="cls-4" d="M94.48,59.65l1-.38c-.22.49-.67.33-1,.43Z"/><path class="cls-4" d="M94.83,60.53c-.2.23-.39.45-.6.67-.06.06-.14.17-.24,0l.81-.73Z"/><path class="cls-4" d="M90.76,63.17l.08,1h0c-.06-.28-.13-.56-.19-.85,0,0,.06-.12.09-.19Z"/><path class="cls-4" d="M90.05,62.94a2.18,2.18,0,0,1,.69-.24A1,1,0,0,1,90.05,62.94Z"/><path class="cls-4" d="M94.14,60.69l-.25.18c-.11.08-.22.12-.27-.06l.52-.16Z"/><path class="cls-4" d="M87.32,63.17l-.43,0,.36-.22Z"/><path class="cls-4" d="M90.74,62.12c0,.3-.33.17-.43.33l0-.05Z"/><path d="M140.17,65.45l-3.06-.85-1.58-.45c-.12,0-.2,0-.25.11s-.24.48-.33.73l-1.11,3.3c0,.1-.09.2-.13.31l-.36,0-.6-5c-.47.1-.91.22-1.35.3-.27.06-.55.22-.83,0,0,0-.09,0-.12,0a2.92,2.92,0,0,0-.37.24c-.28.19-.39.21-.65,0a.72.72,0,0,0-.6-.1c-.35.06-.7.1-1.06.15a.85.85,0,0,0-.06-.17c-.06-.13-.06-.21.11-.24a.67.67,0,0,0,.28-.14c.51-.35,1-.7,1.52-1.06l2-1.41c.19-.14.39-.26.6-.41a4.92,4.92,0,0,1-.26-.43c-.11-.26-.18-.53-.29-.79a3.7,3.7,0,0,0-.75-1.23c-.09-.08-.15-.16,0-.19l-.66-1.32.27-.24.6.47,1.67,1.23,1.53,1.14a.23.23,0,0,0,.19,0c.53-.31,1.05-.63,1.57-1l.48-.31c.12-.07.23-.18.4-.09s.1,0,.15-.07l.84-.5.27.19-1,1.81c.22.16.1.36,0,.53-.12.34-.26.66-.41,1s-.2.34-.28.52a.21.21,0,0,0,0,.19c.33.36.67.71,1,1.06l1.89,2C139.76,65,140,65.2,140.17,65.45Zm-6.06-5.6v-.07l-1.61-1.2a1.48,1.48,0,0,0,.13.21,5.13,5.13,0,0,0,1.31,1.05S134.05,59.85,134.11,59.85Zm-1.9-.69a12.94,12.94,0,0,0,1.52,1.44C133.21,60.13,132.91,59.44,132.21,59.16Zm6,4.82-.77-.83c0,.14.13.26.17.39A.62.62,0,0,0,138.17,64Zm-2.43-.59v.12l1,.33a.1.1,0,0,0,0-.09l-.81-.37S135.79,63.39,135.74,63.39Zm-4-1.81,0,0,.91-.49v-.07c-.06,0-.15,0-.2,0Zm1.39-.71-.26-.23-.24-.22C132.83,60.77,133,60.94,133.18,60.87Zm3.14,2.4,0,0L136,62.8l-.07.21Z"/><path class="cls-4" d="M134.11,59.85c-.06,0-.14,0-.17,0a5.13,5.13,0,0,1-1.31-1.05,1.48,1.48,0,0,1-.13-.21l1.61,1.2Z"/><path class="cls-4" d="M132.21,59.16c.7.28,1,1,1.52,1.44A12.94,12.94,0,0,1,132.21,59.16Z"/><path class="cls-4" d="M138.17,64a.62.62,0,0,1-.6-.44c0-.13-.13-.25-.17-.39Z"/><path class="cls-4" d="M135.74,63.39s.11,0,.14,0l.81.37a.1.1,0,0,1,0,.09l-1-.33Z"/><path class="cls-4" d="M131.79,61.58l.73-.52s.14,0,.2,0v.07l-.91.49Z"/><path class="cls-4" d="M133.18,60.87c-.15.07-.35-.1-.5-.45l.24.22Z"/><path class="cls-4" d="M136.32,63.27l-.4-.26.07-.21.36.44Z"/></svg>